<?xml version="1.0" encoding="iso-8859-1"?>
<!-- Generator: Adobe Illustrator 19.0.0, SVG Export Plug-In . SVG Version: 6.00 Build 0)  -->
<svg version="1.1" id="Layer_1" xmlns="http://www.w3.org/2000/svg" xmlns:xlink="http://www.w3.org/1999/xlink" x="0px" y="0px"
	 viewBox="0 0 512.001 512.001" style="enable-background:new 0 0 512.001 512.001;" xml:space="preserve">
<g>
	<g>
		<path d="M489.596,129.26c-21.172-35.453-52.755-59.795-82.426-63.528c-24.347-3.061-38.614,7.745-43.301,11.295
			c-15.691,11.881-20.16,30.488-21.842,37.493l-0.077,0.357c-0.06,0.32-0.119,0.644-0.177,0.972l-53.16,30.891
			c-9.68,5.625-16.238,15.633-18.964,28.942c-0.875,4.275-1.339,8.896-1.378,13.737c-0.068,8.756,1.246,18.101,3.909,27.774
			c7.313,26.571,23.82,52.345,44.157,68.946c0.989,0.808,1.987,1.583,2.988,2.341l-107.214,62.301
			c-6.361,3.696-16.203,1.452-26.338-5.999c-0.001,0-0.001-0.001-0.002-0.001c-0.019-0.014-0.037-0.026-0.056-0.039
			c-0.829-0.611-1.646-1.244-2.425-1.88c-7.72-6.302-14.638-14.895-20.006-24.849c-4.979-9.233-8.168-18.832-9.224-27.759
			c-0.599-5.066-0.482-9.691,0.349-13.748c0.83-4.055,2.789-9.451,7.409-12.136l89.51-52.014c3.581-2.081,4.798-6.671,2.716-10.253
			c-2.082-3.582-6.673-4.797-10.254-2.716l-89.511,52.014c-7.458,4.334-12.495,11.976-14.568,22.096
			c-1.153,5.628-1.338,11.859-0.55,18.519c1.275,10.785,5.051,22.236,10.917,33.116c5.022,9.314,11.265,17.655,18.274,24.476
			L78.964,401.55c-2.441,1.417-7.682,0.583-13.885-4.48c-2.468-2.016-4.836-4.514-7.038-7.425
			c-7.08-9.362-10.883-21.476-9.248-29.458c0.376-1.832,1.203-4.236,3.013-5.289l70.885-41.19c3.581-2.081,4.798-6.671,2.716-10.253
			c-2.082-3.582-6.673-4.797-10.254-2.716l-50.84,29.543c-1.084-0.586-2.175-1.147-3.269-1.655l-0.136-0.063
			c-0.928-0.428-1.868-0.833-2.764-1.189l-0.179-0.071c-1.851-0.732-3.733-1.361-5.599-1.87l-0.38-0.102
			c-11.328-2.997-22.525-1.703-31.553,3.654c-9.565,5.675-16.251,15.456-19.337,28.286l-0.077,0.358
			c-4.813,25.407,7.764,56.472,30.585,75.544c3.979,3.325,12.268,9.323,23.075,12.132c3.893,1.012,7.738,1.503,11.473,1.503
			c14.78,0,27.799-7.7,34.914-21.324l0.133-0.251c0.058-0.111,0.113-0.225,0.141-0.286c0.199-0.394,0.394-0.791,0.583-1.195
			l0.202-0.44c0.178-0.392,0.353-0.786,0.522-1.187l0.193-0.468c0.162-0.395,0.318-0.792,0.469-1.188l0.192-0.52
			c0.144-0.396,0.285-0.794,0.417-1.188l0.178-0.545c0.128-0.397,0.252-0.797,0.371-1.199l0.165-0.576
			c0.111-0.395,0.219-0.792,0.325-1.208l0.149-0.6c0.096-0.396,0.188-0.794,0.276-1.2l0.133-0.629
			c0.083-0.401,0.161-0.805,0.233-1.208l0.115-0.659c0.068-0.402,0.131-0.806,0.188-1.203l0.099-0.706
			c0.052-0.392,0.099-0.787,0.146-1.204l0.075-0.718c0.039-0.396,0.073-0.793,0.103-1.186c0.02-0.253,0.039-0.506,0.055-0.766
			c0.025-0.392,0.045-0.788,0.063-1.196c0.011-0.259,0.022-0.519,0.03-0.773c0.004-0.12,0.004-0.243,0.007-0.364l74.322-43.188
			c8.244,5.184,16.61,7.852,24.278,7.851c5.215,0,10.108-1.231,14.416-3.734l114.081-66.292c8.458,4.13,16.847,6.217,24.639,6.217
			c6.828,0,13.197-1.601,18.749-4.828l53.078-30.844c2.026,0.696,4.051,1.317,6.051,1.838c5.805,1.51,11.536,2.261,17.113,2.261
			c9.336,0,18.234-2.106,26.292-6.281c12.937-6.703,22.504-18.096,27.668-32.95C517.493,203.612,510.868,164.88,489.596,129.26z
			 M90.08,412.771c-0.083,0.281-0.17,0.56-0.264,0.852l-0.118,0.361c-0.094,0.279-0.191,0.555-0.316,0.898l-0.101,0.272
			c-0.104,0.277-0.213,0.551-0.341,0.862l-0.115,0.278c-0.117,0.276-0.238,0.549-0.351,0.798l-0.139,0.304
			c-0.126,0.268-0.256,0.532-0.382,0.782l-0.119,0.236c-5.693,11.049-16.676,15.674-29.381,12.373
			c-7.969-2.071-14.215-6.606-17.229-9.125c-18.787-15.7-29.252-40.782-25.499-61.063c2.132-8.71,6.404-15.179,12.364-18.714
			c5.569-3.306,12.434-4.027,19.87-2.101l-3.691,2.145c-3.65,2.121-8.377,6.487-10.172,15.247
			c-2.514,12.274,2.189,28.57,11.979,41.515c2.921,3.863,6.122,7.227,9.516,9.998c6.872,5.609,14.113,8.508,20.722,8.507
			c3.644,0,7.097-0.882,10.187-2.677l3.692-2.146c0.001,0.001,0.001,0.002,0.001,0.003L90.08,412.771z M493.15,227.945
			c-7.98,22.953-28.833,33.698-53.125,27.38c-2.572-0.67-5.21-1.53-7.837-2.555c-11.461-4.474-20.475-11.246-24.829-14.884
			c-3.178-2.657-7.909-2.233-10.565,0.944c-2.656,3.178-2.234,7.908,0.945,10.564c3.841,3.21,9.18,7.209,15.74,10.973l-43.9,25.51
			c-8.145,4.732-19.945,3.448-32.372-3.524c-3.798-2.131-7.629-4.767-11.385-7.834c-18.016-14.707-32.663-37.625-39.18-61.307
			c-2.295-8.339-3.43-16.305-3.371-23.675c0.03-3.871,0.392-7.52,1.073-10.846c1.844-9.002,5.926-15.567,11.806-18.983
			l44.112-25.634c0.04,8.441,1.049,17.207,3.025,26.203c0.889,4.045,4.884,6.603,8.934,5.717c4.046-0.889,6.606-4.889,5.717-8.934
			c-2.759-12.563-3.391-24.507-1.878-35.501c0.187-1.355,0.382-2.573,0.595-3.718c1.373-5.711,4.976-20.306,16.269-28.857
			c3.853-2.918,14.085-10.668,32.373-8.37c25.194,3.169,52.561,24.756,71.419,56.335
			C495.741,168.808,501.885,202.825,493.15,227.945z"/>
	</g>
</g>
<g>
	<g>
		<path d="M463.835,144.641c-4.328-7.253-8.914-13.59-13.597-19.087c-16.727-19.631-34.706-28.534-46.81-30.056h-0.001
			c-1.576-0.198-3.126-0.299-4.606-0.299c-9.252,0-14.375,3.878-16.839,5.744c-6.325,4.788-9.072,13.585-10.589,19.786l-0.101,0.477
			c-2.761,15.622,0.063,34.621,7.951,53.498c8.34,19.953,21.741,38.305,37.737,51.675c3.893,3.253,14.298,11.171,26.821,14.429
			c3.252,0.847,6.446,1.276,9.492,1.276c8.327,0,15.354-3.284,20.302-9.274c0.45-0.544,0.882-1.111,1.297-1.7
			c0.83-1.178,1.588-2.443,2.271-3.792c0.683-1.349,1.29-2.783,1.816-4.298C486.165,202.351,480.363,172.318,463.835,144.641z
			 M464.812,218.094c-2.802,8.058-7.917,8.989-11.519,8.989c-1.771,0-3.693-0.267-5.712-0.792
			c-9.583-2.493-17.865-8.818-20.979-11.422c-14.185-11.856-26.088-28.175-33.517-45.95c-6.751-16.158-9.256-32.079-7.061-44.867
			c2.029-8.17,4.179-10.52,5.015-11.153c1.673-1.266,3.569-2.701,7.783-2.701c0.856,0,1.776,0.061,2.734,0.182
			c12.682,1.595,33.55,15.404,49.403,41.951C465.056,175.94,470.493,201.753,464.812,218.094z"/>
	</g>
</g>
<g>
	<g>
		<path d="M415.807,140.428c-0.201-1.296-0.35-2.557-0.442-3.749c-0.32-4.129-3.904-7.222-8.057-6.899
			c-4.129,0.319-7.218,3.926-6.899,8.056c0.122,1.573,0.315,3.22,0.575,4.894c0.575,3.703,3.768,6.35,7.403,6.35
			c0.382,0,0.77-0.029,1.16-0.09C413.639,148.354,416.442,144.521,415.807,140.428z"/>
	</g>
</g>
<g>
	<g>
		<path d="M448.613,193.925c-0.99-0.67-1.949-1.387-2.771-2.074c-7.857-6.567-14.866-15.102-20.27-24.681
			c-2.035-3.608-6.61-4.882-10.218-2.848c-3.608,2.035-4.883,6.609-2.848,10.217c6.283,11.139,14.483,21.104,23.715,28.821
			c1.223,1.021,2.564,2.027,3.987,2.99c1.288,0.871,2.749,1.289,4.196,1.289c2.406,0,4.77-1.156,6.219-3.299
			C452.944,200.908,452.044,196.246,448.613,193.925z"/>
	</g>
</g>
<g>
</g>
<g>
</g>
<g>
</g>
<g>
</g>
<g>
</g>
<g>
</g>
<g>
</g>
<g>
</g>
<g>
</g>
<g>
</g>
<g>
</g>
<g>
</g>
<g>
</g>
<g>
</g>
<g>
</g>
</svg>
