<svg id="boat" enable-background="new 0 0 300 300" height="512" viewBox="0 0 300 300" width="512" xmlns="http://www.w3.org/2000/svg"><g><path d="m173.016 197.205h52c2.127 0 3.883-1.665 3.995-3.79 1.199-22.787-2.749-43.973-11.736-62.972-.944-1.996-3.326-2.849-5.326-1.905-1.997.944-2.85 3.329-1.905 5.326 7.916 16.736 11.654 35.336 11.128 55.341h-44.155v-96.392c5.121 3.901 12.831 10.61 20.333 20.335 1.35 1.749 3.861 2.074 5.61.724 1.749-1.349 2.073-3.861.724-5.61-13.83-17.927-28.084-26.187-28.684-26.53-1.237-.706-2.758-.702-3.992.014-1.233.715-1.992 2.034-1.992 3.459v108c0 2.209 1.791 4 4 4z"/><path d="m97.021 193.415c.112 2.125 1.867 3.79 3.995 3.79h52c2.209 0 4-1.791 4-4v-128c0-1.591-.943-3.031-2.401-3.667-1.459-.636-3.155-.347-4.32.735-.589.546-14.573 13.647-28.208 36.373-12.605 21.008-27.185 54.501-25.066 94.769zm51.995-118.14v113.93h-44.154c-1.439-55.495 30.003-97.779 44.154-113.93z"/><path d="m58.514 236.368c3.856 2.314 8.179 3.471 12.502 3.471s8.646-1.157 12.502-3.471c.644-.386 1.126-.932 1.456-1.549l2.613 2.613c5.012 5.012 11.675 7.772 18.763 7.772h102.622c6.108 0 12.075-2.13 16.803-5.998l5.342-4.371c1.184.381 2.326.891 3.396 1.532 3.856 2.314 8.179 3.471 12.502 3.471s8.646-1.157 12.502-3.471c1.894-1.136 2.508-3.593 1.372-5.488-1.136-1.894-3.593-2.508-5.488-1.372-5.173 3.104-11.599 3.104-16.773 0-.195-.117-.397-.22-.595-.332l25.515-20.876c1.308-1.07 1.802-2.848 1.234-4.44s-2.076-2.655-3.767-2.655h-200c-1.618 0-3.076.975-3.695 2.469s-.277 3.215.867 4.359l21.392 21.392c-.058.031-.12.049-.177.083-5.173 3.104-11.6 3.104-16.772 0-7.163-4.297-15.899-4.632-23.37-.897-1.976.988-2.777 3.39-1.789 5.366s3.391 2.777 5.366 1.789c5.013-2.504 10.873-2.279 15.677.603zm191.296-27.163-29.101 23.81c-3.303 2.702-7.471 4.19-11.737 4.19h-102.622c-4.951 0-9.605-1.928-13.106-5.429l-22.572-22.571z"/><path d="m272.772 258.611c-7.472-3.736-16.207-3.399-23.37.898-5.173 3.104-11.6 3.104-16.772 0-7.162-4.297-15.898-4.632-23.37-.898l-4.954 2.478c-4.563 2.282-10.014 2.283-14.579 0l-4.955-2.478c-7.472-3.736-16.207-3.399-23.37.898-5.173 3.104-11.6 3.104-16.772 0-7.162-4.297-15.898-4.632-23.37-.898l-4.954 2.478c-4.563 2.282-10.014 2.283-14.579 0l-4.955-2.478c-7.472-3.736-16.207-3.399-23.37.898-5.173 3.104-11.6 3.104-16.772 0-2.958-1.774-6.192-2.881-9.616-3.291-2.198-.271-4.185 1.303-4.447 3.497-.262 2.193 1.303 4.185 3.497 4.447 2.296.275 4.466 1.018 6.45 2.208 7.712 4.627 17.293 4.627 25.005 0 4.804-2.884 10.665-3.107 15.676-.603l4.955 2.478c6.805 3.402 14.93 3.402 21.735 0l4.954-2.478c5.012-2.504 10.873-2.281 15.676.602 7.712 4.627 17.293 4.627 25.005 0 4.804-2.884 10.665-3.107 15.676-.603l4.955 2.478c3.402 1.701 7.135 2.552 10.867 2.552s7.465-.851 10.868-2.552l4.954-2.478c5.012-2.504 10.873-2.281 15.676.602 7.712 4.627 17.293 4.627 25.005 0 4.804-2.884 10.665-3.107 15.676-.603 1.976.987 4.378.188 5.366-1.789.986-1.975.185-4.378-1.791-5.365z"/><path d="m73.016 97.205c11.028 0 20-8.972 20-20s-8.972-20-20-20-20 8.972-20 20 8.972 20 20 20zm0-32c6.617 0 12 5.383 12 12s-5.383 12-12 12-12-5.383-12-12 5.383-12 12-12z"/><path d="m69.016 105.205v16c0 2.209 1.791 4 4 4s4-1.791 4-4v-16c0-2.209-1.791-4-4-4s-4 1.791-4 4z"/><path d="m73.016 53.205c2.209 0 4-1.791 4-4v-16c0-2.209-1.791-4-4-4s-4 1.791-4 4v16c0 2.209 1.791 4 4 4z"/><path d="m97.016 77.205c0 2.209 1.791 4 4 4h16c2.209 0 4-1.791 4-4s-1.791-4-4-4h-16c-2.209 0-4 1.791-4 4z"/><path d="m49.016 77.205c0-2.209-1.791-4-4-4h-16c-2.209 0-4 1.791-4 4s1.791 4 4 4h16c2.209 0 4-1.791 4-4z"/><path d="m107.685 110.403c1.528-1.596 1.473-4.128-.123-5.656l-11.556-11.066c-1.596-1.528-4.128-1.473-5.656.123s-1.473 4.128.123 5.656l11.556 11.066c.775.742 1.771 1.111 2.766 1.111 1.053-.001 2.104-.414 2.89-1.234z"/><path d="m50.026 60.729c.775.742 1.771 1.111 2.766 1.111 1.053 0 2.104-.413 2.89-1.233 1.528-1.596 1.473-4.128-.123-5.656l-11.556-11.066c-1.596-1.528-4.127-1.473-5.656.123-1.528 1.596-1.473 4.128.123 5.656z"/><path d="m93.24 61.84c.995 0 1.991-.369 2.766-1.111l11.556-11.066c1.595-1.528 1.65-4.06.123-5.656-1.528-1.595-4.06-1.65-5.656-.123l-11.556 11.066c-1.595 1.528-1.65 4.06-.123 5.656.786.821 1.837 1.234 2.89 1.234z"/><path d="m50.026 93.681-11.556 11.066c-1.595 1.528-1.65 4.06-.123 5.656.786.82 1.837 1.233 2.89 1.233.995 0 1.991-.369 2.766-1.111l11.557-11.066c1.595-1.528 1.65-4.06.123-5.656s-4.061-1.65-5.657-.122z"/></g></svg>