<svg id="photography" enable-background="new 0 0 300 300" height="512" viewBox="0 0 300 300" width="512" xmlns="http://www.w3.org/2000/svg"><path d="m265.382 72.695-100.127-16.641c-2.179-.365-4.24 1.11-4.602 3.29l-7.175 43.17-29.148-37.885c-1.347-1.75-3.859-2.079-5.609-.731l-80.446 61.893c-1.751 1.347-2.079 3.858-.731 5.609l49.294 64.071c.13.169.286.305.437.447v54.139c0 7.688 6.255 13.943 13.943 13.943h140.112c7.688 0 13.943-6.255 13.943-13.943v-92.147c.001-.006.003-.011.004-.017l13.395-80.597c.362-2.179-1.111-4.239-3.29-4.601zm-18.109 103.305h-8.16c-1.006-6.231-6.407-11.01-12.918-11.01-6.51 0-11.911 4.779-12.917 11.01h-7.763c-7.549-12.065-20.949-20.111-36.2-20.111-15.272 0-28.688 8.068-36.232 20.16-.163-.02-.323-.049-.491-.049h-37.319v-30.057c0-3.277 2.666-5.943 5.943-5.943h140.114c3.277 0 5.943 2.666 5.943 5.943zm-15.976 2.091c0 2.812-2.289 5.101-5.101 5.101s-5.101-2.288-5.101-5.101 2.288-5.101 5.101-5.101 5.101 2.289 5.101 5.101zm-61.982-14.202c19.122 0 34.679 15.557 34.679 34.679s-15.557 34.679-34.679 34.679-34.679-15.557-34.679-34.679 15.557-34.679 34.679-34.679zm-29.493-31.889h-4.549v-8c0-2.209-1.791-4-4-4h-24c-2.209 0-4 1.791-4 4v8h-2.057c-7.688 0-13.943 6.255-13.943 13.943v15.653l-22.718-29.528 53.497-41.159 26.336 34.23zm-12.549 0h-16v-4h16zm111.018 0h-27.428l-13.218-16.57c-3.767-4.722-9.392-7.43-15.432-7.43h-8.357l4.727-28.441 66.584 11.066zm-71.921-16h15.843c3.592 0 6.938 1.611 9.178 4.419l9.238 11.581h-51.198l7.166-10.765c2.182-3.278 5.835-5.235 9.773-5.235zm-120.048 13.692 74.106-57.015 31.782 41.308c-.833.859-1.596 1.8-2.273 2.817l-.868 1.304-27.116-35.245c-.647-.841-1.602-1.39-2.653-1.527-1.052-.136-2.115.149-2.956.796l-59.837 46.037c-1.751 1.347-2.079 3.858-.731 5.609l31.498 40.939v8.202zm195.008 126.308h-140.113c-3.277 0-5.943-2.666-5.943-5.943v-66.057h33.925c-1.657 4.548-2.563 9.454-2.563 14.568 0 23.533 19.146 42.679 42.679 42.679s42.679-19.146 42.679-42.679c0-5.114-.906-10.02-2.563-14.568h5.088c2.165 4.26 6.58 7.192 11.677 7.192s9.512-2.932 11.677-7.192h9.401v66.057c-.001 3.277-2.667 5.943-5.944 5.943zm9.513-120.222c-1.319-1.235-2.875-2.214-4.594-2.865l7.466-44.922c.174-1.046-.075-2.119-.692-2.982s-1.552-1.445-2.598-1.619l-74.476-12.377c-2.18-.366-4.24 1.11-4.602 3.29l-5.604 33.718c-1.792.056-3.543.348-5.214.865l7.36-44.283 92.236 15.329z"/><path d="m219.273 128h16c2.209 0 4-1.791 4-4s-1.791-4-4-4h-16c-2.209 0-4 1.791-4 4s1.791 4 4 4z"/><path d="m55.273 56c2.209 0 4-1.791 4-4v-12c0-2.209-1.791-4-4-4s-4 1.791-4 4v12c0 2.209 1.791 4 4 4z"/><path d="m55.273 64c-2.209 0-4 1.791-4 4v12c0 2.209 1.791 4 4 4s4-1.791 4-4v-12c0-2.209-1.791-4-4-4z"/><path d="m51.273 60c0-2.209-1.791-4-4-4h-12c-2.209 0-4 1.791-4 4s1.791 4 4 4h12c2.209 0 4-1.791 4-4z"/><path d="m63.273 64h12c2.209 0 4-1.791 4-4s-1.791-4-4-4h-12c-2.209 0-4 1.791-4 4s1.791 4 4 4z"/><path d="m53.273 204c-7.72 0-14 6.28-14 14s6.28 14 14 14 14-6.28 14-14-6.28-14-14-14zm0 20c-3.309 0-6-2.691-6-6s2.691-6 6-6 6 2.691 6 6-2.691 6-6 6z"/><circle cx="115.273" cy="48" r="4"/><circle cx="67.273" cy="256" r="4"/><circle cx="251.273" cy="44" r="4"/><path d="m169.315 225.906c15.074 0 27.337-12.264 27.337-27.337s-12.264-27.337-27.337-27.337c-15.074 0-27.338 12.264-27.338 27.337s12.263 27.337 27.338 27.337zm0-46.675c10.663 0 19.337 8.675 19.337 19.337s-8.675 19.337-19.337 19.337c-10.663 0-19.338-8.675-19.338-19.337s8.675-19.337 19.338-19.337z"/></svg>