<svg id="no_x5F_photos" enable-background="new 0 0 300 300" height="512" viewBox="0 0 300 300" width="512" xmlns="http://www.w3.org/2000/svg"><path d="m245.896 117.428h-45.418l-.582-1.988 38.039-46.586c1.398-1.711 1.145-4.23-.566-5.627-1.723-1.402-4.238-1.143-5.629.568l-34.569 42.337-.669-2.284c-2.562-8.738-10.711-14.842-19.816-14.842h-51.707c-9.105 0-17.254 6.104-19.816 14.842l-3.977 13.58h-39.735c-10.906 0-19.777 8.871-19.777 19.775v87.816c0 10.904 8.871 19.775 19.777 19.775h22.497l-14.86 18.199c-1.398 1.711-1.145 4.23.566 5.627.742.607 1.641.902 2.527.902 1.16 0 2.312-.502 3.102-1.471l18.991-23.258h151.623c10.906 0 19.777-8.871 19.777-19.775v-87.816c0-10.903-8.871-19.774-19.778-19.774zm-184.445 119.367c-6.492 0-11.777-5.283-11.777-11.775v-87.816c0-6.492 5.285-11.775 11.777-11.775h42.73c1.777 0 3.34-1.172 3.84-2.875l4.82-16.455c1.566-5.354 6.559-9.092 12.137-9.092h51.707c5.578 0 10.57 3.738 12.137 9.092l2.212 7.55-18.873 23.114c-6.33-3.506-13.597-5.515-21.331-5.515-24.359 0-44.18 19.82-44.18 44.182 0 10.912 3.998 20.894 10.577 28.61l-26.747 32.755zm125.563-61.367c0 19.949-16.23 36.18-36.184 36.18-8.645 0-16.585-3.056-22.816-8.134l7.312-8.955c4.235 3.447 9.63 5.521 15.503 5.521 13.57 0 24.613-11.041 24.613-24.611 0-7.65-3.511-14.495-9.005-19.013l7.314-8.957c8.091 6.64 13.263 16.71 13.263 27.969zm-52.793 0c0-9.16 7.449-16.611 16.609-16.611 1.051 0 2.072.123 3.069.31l-18.43 22.571c-.794-1.937-1.248-4.05-1.248-6.27zm33.222 0c0 9.16-7.453 16.611-16.613 16.611-3.958 0-7.547-1.448-10.403-3.767l20.908-25.606c3.698 3.049 6.108 7.606 6.108 12.762zm-8.041-23.04c-2.674-.998-5.554-1.571-8.572-1.571-13.57 0-24.609 11.041-24.609 24.611 0 4.775 1.389 9.223 3.752 13.001l-7.583 9.287c-4.831-6.15-7.739-13.879-7.739-22.288 0-19.951 16.23-36.182 36.18-36.182 5.81 0 11.286 1.41 16.156 3.853zm98.272 72.632c0 6.492-5.285 11.775-11.777 11.775h-145.09l22.152-27.129c7.61 6.206 17.311 9.941 27.872 9.941 24.363 0 44.184-19.818 44.184-44.18 0-13.752-6.321-26.053-16.205-34.162l14.999-18.369c.604 1.502 2.028 2.531 3.675 2.531h48.414c6.492 0 11.777 5.283 11.777 11.775v87.818z"/><path d="m237.674 133.006h-20c-2.211 0-4 1.791-4 4v12c0 2.209 1.789 4 4 4h20c2.211 0 4-1.791 4-4v-12c0-2.209-1.789-4-4-4zm-4 12h-12v-4h12z"/><path d="m77.674 137.006c-8.824 0-16 7.178-16 16v56c0 8.822 7.176 16 16 16s16-7.178 16-16v-56c0-8.822-7.176-16-16-16zm8 72c0 4.412-3.59 8-8 8s-8-3.588-8-8v-56c0-4.412 3.59-8 8-8s8 3.588 8 8z"/><path d="m195.674 61.006c7.719 0 14-6.281 14-14s-6.281-14-14-14-14 6.281-14 14 6.281 14 14 14zm0-20c3.309 0 6 2.691 6 6s-2.691 6-6 6-6-2.691-6-6 2.691-6 6-6z"/><path d="m79.674 105.006c7.719 0 14-6.281 14-14s-6.281-14-14-14-14 6.281-14 14 6.281 14 14 14zm0-20c3.309 0 6 2.691 6 6s-2.691 6-6 6-6-2.691-6-6 2.691-6 6-6z"/><path d="m260.306 107.491c2.477-.349 4.202-2.64 3.853-5.117s-2.64-4.202-5.117-3.853-4.202 2.64-3.853 5.117 2.64 4.202 5.117 3.853z"/><path d="m120.306 39.491c2.477-.349 4.202-2.64 3.853-5.117s-2.64-4.202-5.117-3.853-4.202 2.64-3.853 5.117 2.64 4.202 5.117 3.853z"/><path d="m50.193 57.182c.781.781 1.805 1.172 2.828 1.172s2.047-.391 2.828-1.172c1.562-1.562 1.562-4.094 0-5.656l-4.52-4.52 4.52-4.52c1.562-1.562 1.562-4.094 0-5.656s-4.094-1.562-5.656 0l-4.52 4.52-4.52-4.52c-1.562-1.562-4.094-1.562-5.656 0s-1.562 4.094 0 5.656l4.52 4.52-4.52 4.52c-1.562 1.562-1.562 4.094 0 5.656.781.781 1.805 1.172 2.828 1.172s2.047-.391 2.828-1.172l4.52-4.52z"/></svg>